<mxfile host="app.diagrams.net" agent="Mozilla/5.0 (X11; Linux x86_64) AppleWebKit/537.36 (KHTML, like Gecko) Chrome/139.0.0.0 Safari/537.36" version="28.1.2">
  <diagram name="Pagina-1" id="EtNZyvwIx60SUzeRthI1">
    <mxGraphModel dx="1376" dy="765" grid="1" gridSize="10" guides="1" tooltips="1" connect="1" arrows="1" fold="1" page="1" pageScale="1" pageWidth="827" pageHeight="1169" math="0" shadow="0">
      <root>
        <mxCell id="0" />
        <mxCell id="1" parent="0" />
        <mxCell id="UM94i02UMcKTz3uDxynH-30" value="" style="rounded=1;whiteSpace=wrap;html=1;fillColor=#e1d5e7;strokeColor=#9673a6;glass=0;shadow=0;" parent="1" vertex="1">
          <mxGeometry x="153" y="265" width="520" height="145" as="geometry" />
        </mxCell>
        <mxCell id="UM94i02UMcKTz3uDxynH-25" value="" style="rounded=1;whiteSpace=wrap;html=1;fillColor=#f8cecc;strokeColor=#b85450;glass=0;shadow=0;fillStyle=auto;" parent="1" vertex="1">
          <mxGeometry x="90" y="20" width="220" height="150" as="geometry" />
        </mxCell>
        <mxCell id="UM94i02UMcKTz3uDxynH-2" value="&lt;b&gt;&lt;i&gt;Internet&lt;/i&gt;&lt;/b&gt;" style="text;html=1;align=center;verticalAlign=middle;resizable=0;points=[];autosize=1;strokeColor=none;fillColor=none;" parent="1" vertex="1">
          <mxGeometry x="37.49999999999999" y="195" width="70" height="30" as="geometry" />
        </mxCell>
        <mxCell id="UM94i02UMcKTz3uDxynH-3" value="" style="sketch=0;points=[[0.5,0,0],[1,0.5,0],[0.5,1,0],[0,0.5,0],[0.145,0.145,0],[0.8555,0.145,0],[0.855,0.8555,0],[0.145,0.855,0]];verticalLabelPosition=bottom;html=1;verticalAlign=top;aspect=fixed;align=center;pointerEvents=1;shape=mxgraph.cisco19.rect;prIcon=router;fillColor=#FAFAFA;strokeColor=#005073;" parent="1" vertex="1">
          <mxGeometry x="190" y="180" width="50" height="50" as="geometry" />
        </mxCell>
        <mxCell id="UM94i02UMcKTz3uDxynH-4" value="" style="endArrow=none;html=1;rounded=0;entryX=0;entryY=0.5;entryDx=0;entryDy=0;entryPerimeter=0;exitX=0.941;exitY=0.559;exitDx=0;exitDy=0;exitPerimeter=0;" parent="1" source="UM94i02UMcKTz3uDxynH-27" target="UM94i02UMcKTz3uDxynH-3" edge="1">
          <mxGeometry width="50" height="50" relative="1" as="geometry">
            <mxPoint x="150" y="195" as="sourcePoint" />
            <mxPoint x="400" y="255" as="targetPoint" />
          </mxGeometry>
        </mxCell>
        <mxCell id="UM94i02UMcKTz3uDxynH-5" value="&lt;b&gt;&lt;i&gt;Perimeter&lt;/i&gt;&lt;/b&gt;&lt;div&gt;&lt;b&gt;&lt;i&gt;Router&lt;/i&gt;&lt;/b&gt;&lt;/div&gt;" style="text;html=1;align=center;verticalAlign=middle;resizable=0;points=[];autosize=1;strokeColor=none;fillColor=none;" parent="1" vertex="1">
          <mxGeometry x="175" y="225" width="80" height="40" as="geometry" />
        </mxCell>
        <mxCell id="UM94i02UMcKTz3uDxynH-6" value="" style="sketch=0;points=[[0.5,0,0],[1,0.5,0],[0.5,1,0],[0,0.5,0],[0.145,0.145,0],[0.8555,0.145,0],[0.855,0.8555,0],[0.145,0.855,0]];verticalLabelPosition=bottom;html=1;verticalAlign=top;aspect=fixed;align=center;pointerEvents=1;shape=mxgraph.cisco19.rect;prIcon=router_with_firewall;fillColor=#FAFAFA;strokeColor=#005073;" parent="1" vertex="1">
          <mxGeometry x="335" y="180" width="50" height="50" as="geometry" />
        </mxCell>
        <mxCell id="UM94i02UMcKTz3uDxynH-7" value="&lt;b&gt;&lt;i&gt;Enterprise&lt;/i&gt;&lt;/b&gt;&lt;div&gt;&lt;b&gt;&lt;i&gt;Firewall&lt;/i&gt;&lt;/b&gt;&lt;/div&gt;" style="text;html=1;align=center;verticalAlign=middle;resizable=0;points=[];autosize=1;strokeColor=none;fillColor=none;" parent="1" vertex="1">
          <mxGeometry x="320" y="140" width="80" height="40" as="geometry" />
        </mxCell>
        <mxCell id="UM94i02UMcKTz3uDxynH-8" value="" style="sketch=0;points=[[0.5,0,0],[1,0.5,0],[0.5,1,0],[0,0.5,0],[0.145,0.145,0],[0.8555,0.145,0],[0.855,0.8555,0],[0.145,0.855,0]];verticalLabelPosition=bottom;html=1;verticalAlign=top;aspect=fixed;align=center;pointerEvents=1;shape=mxgraph.cisco19.rect;prIcon=router_with_firewall;fillColor=#FAFAFA;strokeColor=#005073;" parent="1" vertex="1">
          <mxGeometry x="585" y="180" width="50" height="50" as="geometry" />
        </mxCell>
        <mxCell id="UM94i02UMcKTz3uDxynH-9" value="&lt;b&gt;&lt;i&gt;Industrial&lt;/i&gt;&lt;/b&gt;&lt;div&gt;&lt;b&gt;&lt;i&gt;Firewall&lt;/i&gt;&lt;/b&gt;&lt;/div&gt;" style="text;html=1;align=center;verticalAlign=middle;resizable=0;points=[];autosize=1;strokeColor=none;fillColor=none;" parent="1" vertex="1">
          <mxGeometry x="570" y="225" width="80" height="40" as="geometry" />
        </mxCell>
        <mxCell id="UM94i02UMcKTz3uDxynH-10" style="edgeStyle=orthogonalEdgeStyle;rounded=0;orthogonalLoop=1;jettySize=auto;html=1;exitX=1;exitY=0.5;exitDx=0;exitDy=0;exitPerimeter=0;entryX=0;entryY=0.5;entryDx=0;entryDy=0;entryPerimeter=0;shape=filledEdge;endArrow=none;endFill=0;" parent="1" source="UM94i02UMcKTz3uDxynH-3" target="UM94i02UMcKTz3uDxynH-6" edge="1">
          <mxGeometry relative="1" as="geometry" />
        </mxCell>
        <mxCell id="UM94i02UMcKTz3uDxynH-11" style="edgeStyle=orthogonalEdgeStyle;rounded=0;orthogonalLoop=1;jettySize=auto;html=1;exitX=1;exitY=0.5;exitDx=0;exitDy=0;exitPerimeter=0;entryX=0;entryY=0.5;entryDx=0;entryDy=0;entryPerimeter=0;endArrow=none;endFill=0;" parent="1" source="UM94i02UMcKTz3uDxynH-6" target="UM94i02UMcKTz3uDxynH-8" edge="1">
          <mxGeometry relative="1" as="geometry" />
        </mxCell>
        <mxCell id="UM94i02UMcKTz3uDxynH-12" value="" style="endArrow=none;html=1;rounded=0;strokeWidth=4;" parent="1" edge="1">
          <mxGeometry width="50" height="50" relative="1" as="geometry">
            <mxPoint x="110" y="120" as="sourcePoint" />
            <mxPoint x="285" y="120" as="targetPoint" />
          </mxGeometry>
        </mxCell>
        <mxCell id="UM94i02UMcKTz3uDxynH-13" value="" style="endArrow=none;html=1;rounded=0;exitX=0.5;exitY=0;exitDx=0;exitDy=0;exitPerimeter=0;" parent="1" source="UM94i02UMcKTz3uDxynH-3" edge="1">
          <mxGeometry width="50" height="50" relative="1" as="geometry">
            <mxPoint x="410" y="250" as="sourcePoint" />
            <mxPoint x="215" y="120" as="targetPoint" />
          </mxGeometry>
        </mxCell>
        <mxCell id="UM94i02UMcKTz3uDxynH-16" value="" style="sketch=0;points=[[0.015,0.015,0],[0.985,0.015,0],[0.985,0.985,0],[0.015,0.985,0],[0.25,0,0],[0.5,0,0],[0.75,0,0],[1,0.25,0],[1,0.5,0],[1,0.75,0],[0.75,1,0],[0.5,1,0],[0.25,1,0],[0,0.75,0],[0,0.5,0],[0,0.25,0]];verticalLabelPosition=bottom;html=1;verticalAlign=top;aspect=fixed;align=center;pointerEvents=1;shape=mxgraph.cisco19.server;fillColor=#005073;strokeColor=none;" parent="1" vertex="1">
          <mxGeometry x="245.57999999999998" y="60" width="27.500000000000004" height="50" as="geometry" />
        </mxCell>
        <mxCell id="UM94i02UMcKTz3uDxynH-17" value="" style="sketch=0;points=[[0.015,0.015,0],[0.985,0.015,0],[0.985,0.985,0],[0.015,0.985,0],[0.25,0,0],[0.5,0,0],[0.75,0,0],[1,0.25,0],[1,0.5,0],[1,0.75,0],[0.75,1,0],[0.5,1,0],[0.25,1,0],[0,0.75,0],[0,0.5,0],[0,0.25,0]];verticalLabelPosition=bottom;html=1;verticalAlign=top;aspect=fixed;align=center;pointerEvents=1;shape=mxgraph.cisco19.dns_server;fillColor=#005073;strokeColor=none;" parent="1" vertex="1">
          <mxGeometry x="186.83" y="60" width="27.500000000000004" height="50" as="geometry" />
        </mxCell>
        <mxCell id="UM94i02UMcKTz3uDxynH-18" value="" style="sketch=0;points=[[0.015,0.015,0],[0.985,0.015,0],[0.985,0.985,0],[0.015,0.985,0],[0.25,0,0],[0.5,0,0],[0.75,0,0],[1,0.25,0],[1,0.5,0],[1,0.75,0],[0.75,1,0],[0.5,1,0],[0.25,1,0],[0,0.75,0],[0,0.5,0],[0,0.25,0]];verticalLabelPosition=bottom;html=1;verticalAlign=top;aspect=fixed;align=center;pointerEvents=1;shape=mxgraph.cisco19.secure_server;fillColor=#005073;strokeColor=none;" parent="1" vertex="1">
          <mxGeometry x="117.58" y="60" width="27.500000000000004" height="50" as="geometry" />
        </mxCell>
        <mxCell id="UM94i02UMcKTz3uDxynH-19" value="FTP" style="text;html=1;align=center;verticalAlign=middle;resizable=0;points=[];autosize=1;strokeColor=none;fillColor=none;" parent="1" vertex="1">
          <mxGeometry x="107.5" y="30" width="50" height="30" as="geometry" />
        </mxCell>
        <mxCell id="UM94i02UMcKTz3uDxynH-20" value="DNS" style="text;html=1;align=center;verticalAlign=middle;resizable=0;points=[];autosize=1;strokeColor=none;fillColor=none;" parent="1" vertex="1">
          <mxGeometry x="173" y="30" width="50" height="30" as="geometry" />
        </mxCell>
        <mxCell id="UM94i02UMcKTz3uDxynH-21" value="WWW" style="text;html=1;align=center;verticalAlign=middle;resizable=0;points=[];autosize=1;strokeColor=none;fillColor=none;" parent="1" vertex="1">
          <mxGeometry x="229.33" y="30" width="60" height="30" as="geometry" />
        </mxCell>
        <mxCell id="UM94i02UMcKTz3uDxynH-26" value="&lt;b&gt;DMZ&lt;/b&gt;&lt;div&gt;&lt;b&gt;Net&lt;/b&gt;&lt;/div&gt;" style="text;html=1;align=center;verticalAlign=middle;whiteSpace=wrap;rounded=0;" parent="1" vertex="1">
          <mxGeometry x="157.5" y="130" width="60" height="30" as="geometry" />
        </mxCell>
        <mxCell id="UM94i02UMcKTz3uDxynH-27" value="" style="sketch=0;aspect=fixed;pointerEvents=1;shadow=0;html=1;labelPosition=center;verticalLabelPosition=bottom;verticalAlign=top;align=center;shape=mxgraph.mscae.enterprise.internet_hollow;strokeWidth=1;fontStyle=0" parent="1" vertex="1">
          <mxGeometry x="34.92" y="180" width="72.58" height="45" as="geometry" />
        </mxCell>
        <mxCell id="UM94i02UMcKTz3uDxynH-28" value="" style="endArrow=none;html=1;rounded=0;strokeWidth=4;" parent="1" edge="1">
          <mxGeometry width="50" height="50" relative="1" as="geometry">
            <mxPoint x="183" y="310" as="sourcePoint" />
            <mxPoint x="633" y="310" as="targetPoint" />
          </mxGeometry>
        </mxCell>
        <mxCell id="UM94i02UMcKTz3uDxynH-29" value="" style="endArrow=none;html=1;rounded=0;entryX=0.5;entryY=1;entryDx=0;entryDy=0;entryPerimeter=0;" parent="1" target="UM94i02UMcKTz3uDxynH-6" edge="1">
          <mxGeometry width="50" height="50" relative="1" as="geometry">
            <mxPoint x="360" y="310" as="sourcePoint" />
            <mxPoint x="270" y="200" as="targetPoint" />
          </mxGeometry>
        </mxCell>
        <mxCell id="UM94i02UMcKTz3uDxynH-31" value="&lt;b&gt;Enterprise Net&lt;/b&gt;" style="text;html=1;align=center;verticalAlign=middle;whiteSpace=wrap;rounded=0;" parent="1" vertex="1">
          <mxGeometry x="368" y="270" width="60" height="30" as="geometry" />
        </mxCell>
        <mxCell id="UM94i02UMcKTz3uDxynH-32" value="" style="points=[[0.03,0.03,0],[0.5,0,0],[0.97,0.03,0],[1,0.4,0],[0.97,0.745,0],[0.5,1,0],[0.03,0.745,0],[0,0.4,0]];verticalLabelPosition=bottom;sketch=0;html=1;verticalAlign=top;aspect=fixed;align=center;pointerEvents=1;shape=mxgraph.cisco19.workstation;fillColor=#005073;strokeColor=none;" parent="1" vertex="1">
          <mxGeometry x="173" y="325" width="50" height="40" as="geometry" />
        </mxCell>
        <mxCell id="UM94i02UMcKTz3uDxynH-33" value="Windows&amp;nbsp;&lt;div&gt;Workstation&lt;/div&gt;" style="text;html=1;align=center;verticalAlign=middle;resizable=0;points=[];autosize=1;strokeColor=none;fillColor=none;" parent="1" vertex="1">
          <mxGeometry x="155.57999999999998" y="360" width="90" height="40" as="geometry" />
        </mxCell>
        <mxCell id="UM94i02UMcKTz3uDxynH-35" value="" style="sketch=0;points=[[0.015,0.015,0],[0.985,0.015,0],[0.985,0.985,0],[0.015,0.985,0],[0.25,0,0],[0.5,0,0],[0.75,0,0],[1,0.25,0],[1,0.5,0],[1,0.75,0],[0.75,1,0],[0.5,1,0],[0.25,1,0],[0,0.75,0],[0,0.5,0],[0,0.25,0]];verticalLabelPosition=bottom;html=1;verticalAlign=top;aspect=fixed;align=center;pointerEvents=1;shape=mxgraph.cisco19.rect;prIcon=database_relational;fillColor=none;strokeColor=light-dark(#2657a1, #436697);" parent="1" vertex="1">
          <mxGeometry x="253" y="320" width="50" height="50" as="geometry" />
        </mxCell>
        <mxCell id="UM94i02UMcKTz3uDxynH-36" value="DB" style="text;html=1;align=center;verticalAlign=middle;resizable=0;points=[];autosize=1;strokeColor=none;fillColor=none;" parent="1" vertex="1">
          <mxGeometry x="258" y="370" width="40" height="30" as="geometry" />
        </mxCell>
        <mxCell id="UM94i02UMcKTz3uDxynH-37" value="" style="sketch=0;points=[[0.015,0.015,0],[0.985,0.015,0],[0.985,0.985,0],[0.015,0.985,0],[0.25,0,0],[0.5,0,0],[0.75,0,0],[1,0.25,0],[1,0.5,0],[1,0.75,0],[0.75,1,0],[0.5,1,0],[0.25,1,0],[0,0.75,0],[0,0.5,0],[0,0.25,0]];verticalLabelPosition=bottom;html=1;verticalAlign=top;aspect=fixed;align=center;pointerEvents=1;shape=mxgraph.cisco19.server;fillColor=#005073;strokeColor=none;" parent="1" vertex="1">
          <mxGeometry x="325.5" y="320" width="27.500000000000004" height="50" as="geometry" />
        </mxCell>
        <mxCell id="UM94i02UMcKTz3uDxynH-39" value="SCADA" style="text;html=1;align=center;verticalAlign=middle;resizable=0;points=[];autosize=1;strokeColor=none;fillColor=none;" parent="1" vertex="1">
          <mxGeometry x="308" y="370" width="60" height="30" as="geometry" />
        </mxCell>
        <mxCell id="UM94i02UMcKTz3uDxynH-40" value="" style="sketch=0;points=[[0.015,0.015,0],[0.985,0.015,0],[0.985,0.985,0],[0.015,0.985,0],[0.25,0,0],[0.5,0,0],[0.75,0,0],[1,0.25,0],[1,0.5,0],[1,0.75,0],[0.75,1,0],[0.5,1,0],[0.25,1,0],[0,0.75,0],[0,0.5,0],[0,0.25,0]];verticalLabelPosition=bottom;html=1;verticalAlign=top;aspect=fixed;align=center;pointerEvents=1;shape=mxgraph.cisco19.secure_server;fillColor=#005073;strokeColor=none;" parent="1" vertex="1">
          <mxGeometry x="399.25" y="320" width="27.500000000000004" height="50" as="geometry" />
        </mxCell>
        <mxCell id="UM94i02UMcKTz3uDxynH-41" value="Message Broker&lt;div&gt;DITTO&lt;/div&gt;" style="text;html=1;align=center;verticalAlign=middle;resizable=0;points=[];autosize=1;strokeColor=none;fillColor=none;" parent="1" vertex="1">
          <mxGeometry x="358" y="370" width="110" height="40" as="geometry" />
        </mxCell>
        <mxCell id="UM94i02UMcKTz3uDxynH-42" value="" style="sketch=0;points=[[0.015,0.015,0],[0.985,0.015,0],[0.985,0.985,0],[0.015,0.985,0],[0.25,0,0],[0.5,0,0],[0.75,0,0],[1,0.25,0],[1,0.5,0],[1,0.75,0],[0.75,1,0],[0.5,1,0],[0.25,1,0],[0,0.75,0],[0,0.5,0],[0,0.25,0]];verticalLabelPosition=bottom;html=1;verticalAlign=top;aspect=fixed;align=center;pointerEvents=1;shape=mxgraph.cisco19.secure_server;fillColor=#005073;strokeColor=none;" parent="1" vertex="1">
          <mxGeometry x="539.25" y="320" width="27.500000000000004" height="50" as="geometry" />
        </mxCell>
        <mxCell id="UM94i02UMcKTz3uDxynH-43" value="BPMN" style="text;html=1;align=center;verticalAlign=middle;resizable=0;points=[];autosize=1;strokeColor=none;fillColor=none;" parent="1" vertex="1">
          <mxGeometry x="523" y="375" width="60" height="30" as="geometry" />
        </mxCell>
        <mxCell id="UM94i02UMcKTz3uDxynH-44" value="" style="sketch=0;points=[[0.015,0.015,0],[0.985,0.015,0],[0.985,0.985,0],[0.015,0.985,0],[0.25,0,0],[0.5,0,0],[0.75,0,0],[1,0.25,0],[1,0.5,0],[1,0.75,0],[0.75,1,0],[0.5,1,0],[0.25,1,0],[0,0.75,0],[0,0.5,0],[0,0.25,0]];verticalLabelPosition=bottom;html=1;verticalAlign=top;aspect=fixed;align=center;pointerEvents=1;shape=mxgraph.cisco19.secure_server;fillColor=#005073;strokeColor=none;" parent="1" vertex="1">
          <mxGeometry x="608" y="320" width="27.500000000000004" height="50" as="geometry" />
        </mxCell>
        <mxCell id="UM94i02UMcKTz3uDxynH-45" value="BPMN Viewer" style="text;html=1;align=center;verticalAlign=middle;resizable=0;points=[];autosize=1;strokeColor=none;fillColor=none;" parent="1" vertex="1">
          <mxGeometry x="571.75" y="375" width="100" height="30" as="geometry" />
        </mxCell>
        <mxCell id="UM94i02UMcKTz3uDxynH-46" value="" style="sketch=0;points=[[0.015,0.015,0],[0.985,0.015,0],[0.985,0.985,0],[0.015,0.985,0],[0.25,0,0],[0.5,0,0],[0.75,0,0],[1,0.25,0],[1,0.5,0],[1,0.75,0],[0.75,1,0],[0.5,1,0],[0.25,1,0],[0,0.75,0],[0,0.5,0],[0,0.25,0]];verticalLabelPosition=bottom;html=1;verticalAlign=top;aspect=fixed;align=center;pointerEvents=1;shape=mxgraph.cisco19.server;fillColor=#005073;strokeColor=none;" parent="1" vertex="1">
          <mxGeometry x="480.5" y="320" width="27.500000000000004" height="50" as="geometry" />
        </mxCell>
        <mxCell id="UM94i02UMcKTz3uDxynH-47" value="DITTO&lt;div&gt;Frontend&lt;/div&gt;" style="text;html=1;align=center;verticalAlign=middle;resizable=0;points=[];autosize=1;strokeColor=none;fillColor=none;" parent="1" vertex="1">
          <mxGeometry x="458" y="365" width="70" height="40" as="geometry" />
        </mxCell>
        <mxCell id="UM94i02UMcKTz3uDxynH-48" value="" style="rounded=1;whiteSpace=wrap;html=1;fillColor=#d5e8d4;strokeColor=#82b366;glass=0;shadow=0;" parent="1" vertex="1">
          <mxGeometry x="400" y="10" width="360" height="160" as="geometry" />
        </mxCell>
        <mxCell id="UM94i02UMcKTz3uDxynH-49" value="" style="endArrow=none;html=1;rounded=0;strokeWidth=4;" parent="1" edge="1">
          <mxGeometry width="50" height="50" relative="1" as="geometry">
            <mxPoint x="420" y="120" as="sourcePoint" />
            <mxPoint x="750" y="120" as="targetPoint" />
          </mxGeometry>
        </mxCell>
        <mxCell id="UM94i02UMcKTz3uDxynH-50" value="&lt;b&gt;Industrial&lt;/b&gt;&lt;div&gt;&lt;b&gt;Net&lt;/b&gt;&lt;/div&gt;" style="text;html=1;align=center;verticalAlign=middle;whiteSpace=wrap;rounded=0;" parent="1" vertex="1">
          <mxGeometry x="540" y="130" width="60" height="30" as="geometry" />
        </mxCell>
        <mxCell id="UM94i02UMcKTz3uDxynH-51" value="" style="endArrow=none;html=1;rounded=0;exitX=0.5;exitY=0;exitDx=0;exitDy=0;exitPerimeter=0;" parent="1" edge="1">
          <mxGeometry width="50" height="50" relative="1" as="geometry">
            <mxPoint x="609.66" y="180" as="sourcePoint" />
            <mxPoint x="610" y="120" as="targetPoint" />
          </mxGeometry>
        </mxCell>
        <mxCell id="UM94i02UMcKTz3uDxynH-53" value="Solar Panels" style="text;html=1;align=center;verticalAlign=middle;resizable=0;points=[];autosize=1;strokeColor=none;fillColor=none;" parent="1" vertex="1">
          <mxGeometry x="395" y="35" width="90" height="30" as="geometry" />
        </mxCell>
        <mxCell id="UM94i02UMcKTz3uDxynH-55" value="Gas Turbine&lt;div&gt;Generator&lt;/div&gt;" style="text;html=1;align=center;verticalAlign=middle;resizable=0;points=[];autosize=1;strokeColor=none;fillColor=none;" parent="1" vertex="1">
          <mxGeometry x="481.25" y="30" width="90" height="40" as="geometry" />
        </mxCell>
        <mxCell id="UM94i02UMcKTz3uDxynH-57" value="Energy&amp;nbsp;&lt;div&gt;Storage&lt;/div&gt;" style="text;html=1;align=center;verticalAlign=middle;resizable=0;points=[];autosize=1;strokeColor=none;fillColor=none;" parent="1" vertex="1">
          <mxGeometry x="565" y="35" width="70" height="40" as="geometry" />
        </mxCell>
        <mxCell id="UM94i02UMcKTz3uDxynH-61" value="" style="shape=image;html=1;verticalAlign=top;verticalLabelPosition=bottom;labelBackgroundColor=#ffffff;imageAspect=0;aspect=fixed;image=https://icons.diagrams.net/icon-cache1/Green_world-2013/Green_World-18-1102.svg" parent="1" vertex="1">
          <mxGeometry x="410" y="55" width="60" height="60" as="geometry" />
        </mxCell>
        <mxCell id="UM94i02UMcKTz3uDxynH-62" value="" style="shape=image;html=1;verticalAlign=top;verticalLabelPosition=bottom;labelBackgroundColor=#ffffff;imageAspect=0;aspect=fixed;image=https://icons.diagrams.net/icon-cache1/Essential_App_2-2093/battery-half-energy-charge-1042.svg" parent="1" vertex="1">
          <mxGeometry x="580" y="65" width="50" height="50" as="geometry" />
        </mxCell>
        <mxCell id="UM94i02UMcKTz3uDxynH-63" value="" style="sketch=0;outlineConnect=0;fontColor=#232F3E;gradientColor=none;fillColor=#232F3D;strokeColor=none;dashed=0;verticalLabelPosition=bottom;verticalAlign=top;align=center;html=1;fontSize=12;fontStyle=0;aspect=fixed;pointerEvents=1;shape=mxgraph.aws4.office_building;" parent="1" vertex="1">
          <mxGeometry x="650.13" y="50" width="39.87" height="62.2" as="geometry" />
        </mxCell>
        <mxCell id="UM94i02UMcKTz3uDxynH-64" value="Campus Buildings" style="text;html=1;align=center;verticalAlign=middle;resizable=0;points=[];autosize=1;strokeColor=none;fillColor=none;" parent="1" vertex="1">
          <mxGeometry x="640" y="20" width="120" height="30" as="geometry" />
        </mxCell>
        <mxCell id="UM94i02UMcKTz3uDxynH-65" value="" style="sketch=0;outlineConnect=0;fontColor=#232F3E;gradientColor=none;fillColor=#232F3D;strokeColor=none;dashed=0;verticalLabelPosition=bottom;verticalAlign=top;align=center;html=1;fontSize=12;fontStyle=0;aspect=fixed;pointerEvents=1;shape=mxgraph.aws4.office_building;" parent="1" vertex="1">
          <mxGeometry x="710" y="46.949999999999996" width="35.96" height="56.1" as="geometry" />
        </mxCell>
        <mxCell id="UM94i02UMcKTz3uDxynH-66" value="&lt;b&gt;&lt;font style=&quot;font-size: 16px;&quot;&gt;...&lt;/font&gt;&lt;/b&gt;" style="text;html=1;align=center;verticalAlign=middle;resizable=0;points=[];autosize=1;strokeColor=none;fillColor=none;" parent="1" vertex="1">
          <mxGeometry x="680" y="65" width="40" height="30" as="geometry" />
        </mxCell>
        <mxCell id="UM94i02UMcKTz3uDxynH-67" value="&lt;font style=&quot;color: rgb(204, 0, 0);&quot;&gt;&lt;i style=&quot;&quot;&gt;WWW&lt;/i&gt;&amp;nbsp;&lt;span style=&quot;background-color: transparent;&quot;&gt;@&amp;nbsp;&lt;/span&gt;&lt;/font&gt;&lt;div&gt;&lt;span style=&quot;background-color: transparent;&quot;&gt;&lt;font style=&quot;color: rgb(204, 0, 0);&quot;&gt;&lt;b style=&quot;&quot;&gt;:5000&lt;/b&gt;&lt;/font&gt;&lt;/span&gt;&lt;/div&gt;" style="text;html=1;align=center;verticalAlign=middle;resizable=0;points=[];autosize=1;strokeColor=none;fillColor=none;" parent="1" vertex="1">
          <mxGeometry x="123.82999999999998" y="185" width="80" height="40" as="geometry" />
        </mxCell>
        <mxCell id="UM94i02UMcKTz3uDxynH-68" value="" style="shape=image;verticalLabelPosition=bottom;labelBackgroundColor=default;verticalAlign=top;aspect=fixed;imageAspect=0;image=data:image/png,iVBORw0KGgoAAAANSUhEUgAAAgAAAAIACAYAAAD0eNT6AAAQAElEQVR4AeydCZwfZX3/N3uRhIQE8EREiBE1Ekh2N4kB1BXpX6pVWzFqVcRWildbj4rgVc/aivWqVxW1HmArqeKBByo1ipBuskdIalAIh1a0eABhgQ27+W3+nyfJht3N75h5njmeZ553Xs+T+e3Mc3y/72fmmc88M/NMexv/IAABCEAAAhCIjgACILomx2EIQAACEIBAWxsCgL0AAhCAAAQgECEBBECEjY7LEIAABCAQNwHjPQLAUCBCAAIQgAAEIiOAAIiswXEXAhCAAARiJ7DPfwTAPg78DwEIQAACEIiKAAIgqubGWQhAAAIQiJ3AlP8IgCkSLCEAAQhAAAIREUAARNTYuAoBCEAAArETuN9/BMD9LPgFAQhAAAIQiIYAAiCapsZRCEAAAhCIncB0/xEA02nwGwIQgAAEIBAJAQRAJA2NmxCAAAQgEDuBmf4jAGby4C8IQAACEIBAFAQQAFE0M05CAAIQgEDsBGb7jwCYTYS/IQABCEAAAhEQQABE0Mi4CAEIQAACsRM42H8EwMFMWAMBCEAAAhCoPAEEQOWbGAchAAEIQCB2AvX8RwDUo8I6CEAAAhCAQMUJIAAq3sC4BwEIQAACsROo7z8CoD4X1kIAAhCAAAQqTQABUOnmxTkIQAACEIidQCP/EQCNyLAeAhCAAAQgUGECCIAKNy6uQQACEIBA7AQa+48AaMyGLRCAAAQgAIHKEkAAVLZpcQwCEIAABGIn0Mx/BEAzOmyDAAQgAAEIVJQAAqCiDYtbEIAABCAQO4Hm/iMAmvNhKwQgAAEIQKCSBBAAlWxWnIIABCAAgdgJtPIfAdCKENshAAEIQAACFSSAAKhgo+ISBCAAAQjETqC1/wiA1oxIAQEIQAACEKgcAQRA5ZoUhyAAAQhAIHYCSfxHACShRBoIQAACEIBAxQggACrWoLgDAQhAAAKxE0jmPwIgGSdSQQACEIAABCpFAAFQqebEGQhAAAIQiJ1AUv8RAElJkQ4CEIAABCBQIQIIgAo1Jq5AAAIQgEDsBJL7jwBIzoqUEIAABCAAgcoQQABUpilxBAIQgAAEYieQxn8EQBpapIUABCAAAQhUhAACoCINiRsQgAAEIBA7gXT+IwDS8SI1BCAAAQhAoBIEEACVaEacgAAEIACB2Amk9R8BkJYY6SEAAQhAAAIVIIAAqEAj4gIEIAABCMROIL3/CID0zMgBAQhAAAIQCJ4AAiD4JsQBCEAAAhCInYCN/wgAG2rkgQAEIAABCAROAAEQeANiPgQgAAEIxE7Azn8EgB03ckEAAhCAAASCJoAACLr5MB4CEIAABGInYOs/AsCWHPkgAAEIQAACARNAAATceJgOAQhAAAKxE7D3HwFgz46cEIAABCAAgWAJIACCbToMhwAEIACB2Am4+I8AcKFHXghAAAIQgECgBBAAgTYcZkMAAhCAQOwE3PxHALjxIzcEIAABCEAgSAIIgCCbDaMhAAEIQCB2Aq7+IwBcCZIfAhCAAAQgECABBECAjYbJEIAABCAQOwF3/xEA7gwpAQIQgAAEIBAcAQRAcE2GwRCAAAQgEDuBLPxHAGRBkTIgAAEIQAACgRFAAATWYJgLAQhAAAKxE8jGfwRANhwpBQIQgAAEIBAUAQRAUM2FsRCAAAQgEDuBrPxHAGRFknIgAAEIQAACARFAAATUWJgKAQhAAAKxE8jOfwRAdiwpCQIQgAAEIBAMAQRAME2FoRCAAAQgEDuBLP1HAGRJk7IgAAEIQAACgRBAAATSUJgJAQhAAAKxE8jWfwRAtjwpDQIQgAAEIBAEAQRAEM2EkRCAAAQgEDuBrP1HAGRNlPIgAAEIQAACARBAAATQSJgIAQhAAAKxE8jefwRA9kwpEQIQgAAEIOA9AQSA902EgRCAAAQgEDuBPPxHAORBlTIhAAEIQAACnhNAAHjeQJgHAQhAAAKxE8jHfwRAPlwpFQIQgAAEIOA1AQSA182DcRCAAAQgEDuBvPxHAORFlnIhAAEIQAACHhNAAHjcOJgGAQhAAAKxE8jPfwRAfmwpGQIQgAAEIOAtAQSAt02DYRCAAAQgEDuBPP1HAORJl7IhAAEIQAACnhJAAHjaMJgFAQhAAAKxE8jXfwRAvnwpHQIQgAAEIOAlAQSAl82CURCAAAQgEDuBvP1HAORNmPIhAAEIQAACHhJAAHjYKJgEAQhAAAKxE8jffwRA/oypAQIQgAAEIOAdAQSAd02CQRCAAAQgEDuBIvxHABRBmTogAAEIQAACnhFAAHjWIJgDAQhAAAKxEyjGfwRAMZypBQIQgAAEIOAVAQSAV82BMRCAAAQgEDuBovxHABRFmnogAAEIQAACHhFAAHjUGJgCAQhAAAKxEyjOfwRAcaypCQIQgAAEIOANAQSAN02BIRCAAAQgEDuBIv1HABRJm7ogAAEIQAACnhBAAHjSEJgBAQhAAAKxEyjWfwRAsbypDQIQgAAEIOAFAQSAF82AERCAAAQgEDuBov1HABRNnPogAAEIQAACHhBAAHjQCJgAAQhAAAKxEyjefwRA8cypEQIQgAAEIFA6AQRA6U2AARCAAAQgEDuBMvxHAJRBnTohAAEIQAACJRNAAJTcAFQPAQhAAAKxEyjHfwRAOdypFQIQgAAEIFAqAQRAqfipHAIQgAAEYidQlv8IgLLIUy8EIAABCECgRAIIgBLhUzUEIAABCMROoDz/EQDlsadmCEAAAhCAQGkEEACloadiCEAAAhCInUCZ/iMAyqRP3RCAAAQgAIGSCCAASgJPtRCAAAQgEDuBcv1HAJTLn9ohAAEIQAACpRBAAJSCnUohAAEIQCB2AmX7jwAouwWoHwIQgAAEIFACAQRACdCpEgIQgAAEYidQvv8IgPLbAAsgAAEIQAAChRNAABSOnAohAAEIQCB2Aj74jwDwoRWwAQIQgAAEIFAwAQRAwcCpDgIQgAAEYifgh/8IAD/aASsgAAEIQAAChRJAABSKm8ogAAEIQCB2Ar74jwDwpSWwAwIQgAAEIFAgAQRAgbCpCgIQgAAEYifgj/8IAH/aAksgAAEIQAAChRFAABSGmoogAAEIQCB2Aj75jwDwqTWwBQIQgAAEIFAQAQRAQaCpBgIQgAAEYifgl/8IAL/aA2sgAAEIQAAChRBAABSCmUogAAEIQCB2Ar75jwDwrUWwBwIQgAAEIFAAAQRAAZCpAgIQgAAEYifgn/8IAP/aBIsgAAEIQAACuRNAAOSOmAogAAEIQCB2Aj76jwDwsVWwCQIQgAAEIJAzAQRAzoApHgIQgAAEYifgp/8IAD/bBasgAAEIQAACuRJAAOSKl8IhAAEIQCB2Ar76jwDwtWWwCwIQgAAEIJAjAQRAjnApGgIQgAAEYifgr/8IAH/bBssgAAEIQAACuRFAAOSGloIhAAEIQCB2Aj77jwDwuXWwDQIQgAAEIJATAQRATmApFgIQgAAEYifgt/8IAL/bB+sgAAEIQAACuRBAAOSClUIhAAEIQCB2Ar77jwDwvYWwDwIQgAAEIJADAQRADlApEgIQgAAEYifgv/8IAP/bCAshAAEIQAACmRNAAGSOlAIhAAEIQCB2AiH4jwAIoZWwEQIQgAAEIJAxAQRAxkApDgIQgAAEYicQhv8IgDDaCSshAAEIQAACmRJAAGSKk8IgAAEIQCB2AqH4jwAIpaWwEwIQgAAEIJAhAQRAhjApCgIQgAAEYicQjv8IgHDaCkshAAEIQAACmRFAAGSGkoIgAAEIQCB2AiH5jwAIqbWwFQIQgAAEIJARAQRARiApBgIQgAAEYicQlv8IgLDaC2shAAEIQAACmRBAAGSCkUIgAAEIQCB2AqH5jwAIrcWwFwIQgAAEIJABAQRABhApAgIQgAAEYicQnv8IgPDaDIshAAEIQAACzgQQAM4IKQACEIAABGInEKL/CIAQWw2bIQABCEAAAo4EEACOAMkOAQhAAAKxEwjTfwRAmO2G1RCAAAQgAAEnAjEJgPaenp6n9vX1Xdjb23upfn+f2FNJBmrf7yperLZ+s5bLnY4QMkMAAhBoQSDUzVEIgJUrVz5FJ4Lr5syZ8909e/acp8Zap9+nE+dUkoHa96mKL1Rbv1vLrWr7y7UPPEK/CRCAAAQgsJ9A5QWArvLP1Yn+Cvl7vCIhTgJPb29v36QRgZVxuo/XEIBAfgTCLbnSAkAd/h+paT4uAdChJSFuAg/SiMDlq1evPjJuDHgPAQhAYB+BygqAdevWdajD5+S/r535fx+Bo2q12rv2/eR/CEAAAu4EQi6hsgLgpptuOkMNs1SRAIHpBM4+5ZRTFk5fwW8IQAACMRKorABQY5rhfy0IEJhBYP7Y2NjJM9bwBwQgAAErAmFnqqwA0PD/cWE3DdbnRaC9vf3YvMqmXAhAAAKhEGgPxdC0ds6ZM2du2jykj4bA/Gg8TeFob29vV19f30r9e7l+v17xbP19OrEPBn3VZLBq1apnr169+hzt66/v6en5My0fkOKQaQs9bWUFQOgNg/0QKIpAX1/fM9X5Xa1RszHFYY2QfEJ1v0/xc/r7+8Q9MNhTTQaTk5NfqdVqF2lff58uGr+q5e8kAu7U8fAFLR+qvysdEACVbl6cg0BjArr6eZyu9n+sE/zX1fmdrMjrso1xsSUeAot0LJwld2+RCHjPihUrFut3nRD+KgRA+G2IBxBIRWDZsmUL1LG9X1c/I7raf0KqzCSGQDwEuuXqGyUGfiah3KfflQsIgMo1KQ5BoDEBczUzf/787ynF6xS7FAkQgEATAhLJD1b8oW4LmFfLD6Sswg8EQBVaER8gkIDA8uXLD9fVzBUa8l+bIDlJIACB+wks0LHzjaqJAATA/Q3MLwhUloA5+Xd3d1+lK5nVlXUSxyCQL4EuiYAv6fbZI9va8q2oqNIRAPVJ/0Kr1xPbfGZwn9qHkIzAnK6urs8p6eMUCRCAgD2Bw5X1K/39/ZV4zRwBoNasE340NDT0XKK/DNRmdylaBQ2BnyQVvy7P2NfX98cq/zFWBmacSbacpyuXZ2ZcLMVBIFYCJ42Ojr6hCs4jAKrQiviQlsDZynBpnlEi49sq/zrdM/ylTsBvWLp06SH6u/AgEXLq5OTkPxReMRVCoMIEdHxfoON6SeguIgBCb0Hs95qArrwfrs7ivYsWLdqkk/ExRRq7bNmybtX9adnQWWS91AWBahNoa9MxNU/C+sK2wP8hAAJvQMwPhsCJsvTK1atXH6llIWH+/Plm6P/RhVRGJRCIjIBEwLMl6peH7DYCIOTWw/bQCCyt1WofKMJoCY3jdPX/piLqog4IxERgmq9z9PsCxWADAiDYpsPwQAm8yJyc87Z99+7dZi5/PnqUN2jKj5qARPbzVqxYcWyoEBAAobYcdodKoF33Dv80T+NXrlx5khmezLMOyoZAnARmeq3jrKO9vf2cmWvD+QsBEE5bYWlFCOiq4aQ8XVGH9DaVb4YntSBAAAJ5EpAI+Mv+eh8vuwAAEABJREFU/v4gH7StrABQJztq2+jKa/2OuW2d5IuHgPavBXl5u2rVqhUq23mEQTb+SOUcNT4+fkSIUZ3y+bI/aRgaGxs7MkQ/5eDfKiYKatMbJiYmHhyin61s1i2v0xJBcEzUIPtD77777qc32Ob16soKAHUA19uSV94bbPOSDwKtCGj/+l2rNLbbdXvhzcrrevX/i0MOOeTZQ0NDv9m2bdsdIUYxWKeYKIjZ+du3b789RD+1L/15IieVSGnfvHXr1t+G6Gcrmzs7O51FrxBZB4mr51lnLjFjlQXAtyy57qnVat+xzEs2CLQkoI54Y8tEFgl09W/mHHDtCPeo6hdt3Ljxdi2DDKtXrz5eHXLSz7duGRkZuTJER9esWXO0/Hx8QtuvX7JkyVcTpg0tmTmPPd/R6ASivGkNz1i7du28pik83GjAeWiWu0mDg4NXW3a0X9+yZQsjAO5NQAl1CKjDHu3o6PhanU3Oq3Ql+wrt852OBX1GV/4/cSyj1OwS8M9IaoB4fTRpWt/SadjbTO+cdLTn4+vXr6/55kMW9kj4GhH0INuydEzuVt4zFO9RtA0LdHvlabaZy8pXWQFggKphX6bl3YpJg1GBr06amHQQsCDwroGBgcyfMdk/1fBLLew5kEUCwlz1v/HAikB/6KRuToxJrL9XtzrMlNBJ0nqXRv3bnyU0ynw465KEaYNLpv02aXvX9U37y7eGhoaGtWy6L9TNPG2l7EAATONR+k816jY1ihkS3dnKGKW7TfFpyvPLVmnZDgEbAupgvjo8PPx+m7yt8ixevNjcg7S+CjLly773a///vfkdatQw7BE6jk9OaP9lV199tfXDwgnryCXZihUrFqu9npSkcAmFy0Nv1xZ+Jh7xqVeO+HzerNd+8ymztI1qj9Nt85aVr9IjAAaqub+nhunR78sUJxVnhwntAF9sb29fqbSDszfyNwQyIGD2uw8vWLDAnKTN7wyKnFmEOq+/nLkm3V86Bv4wb968j6TL5V/q++6772k63hPdBlE60yf450QCi9RfmafOuxIkNUlyueVkCi479vb2PlI2LFO0Db/ftWvX3ufFJM7/W8fBTfULSrT2GPP8SaKUniSqvAAwnAcHB2+SAn62DhozY9NLtM68J/1WLV/Y2dn5cDX8i7X9N/qbAIGsCJiH6W5WYRdpv+vV/vWaDRs2mHuNWpVtUCd4jE5mT3ApVTZ+MNSr4el+i0PSq8H7NPz/vel5Q/otP5+V0F7dmp7Ye4JLmD6oZDphP8XR4Mu2b98+PlWGuDrdBqjVakGNAkQhAKYad/Pmzf+rjvjziu9UfLfil3Q/9rap7SzjIKBO482t3it23a59q1NxieK52u+25Ez2BSrf+lgWj7Gurq5PqIygQ3//3slYnprQiR8FLHjmqM1OS+jnVeYVuoRpg0umE3ai2yCNHBPHb07fppG0r0z/e+p3iiUCIAUskkKgcAK62h0znWKeUU7lMtSvcusFIwDqrU+0Tp3oJSG/9jfl5F133WVmWFw09XeL5akaObk90Hin2izpVyUrO/y/v32tBYBO/mPieOX+cvYudBt4WD9cnoN58rp16zpURhDB+qohCO8wEgIVJ2Dm/ZeLTp8kVUf4ryoj+CBhtzaFE+ZDSYcrfYjxMNmdKOiK9huJEgaYaMWKFY+S2Q9TtAraX36gEbp7Z2U2wv2HM9el+mvxzTff3JsqR4mJEQAlwqdqCLgSUCf2HJcydAW0cXh4eMilDF/ySsgkffrfF5PztuMXuqL9Rd6VlFV+R0eH9dW/sVn7yw/McnbUMTFjVGD29lZ/q1zX5xJaVZHZdl8EQHtPT88ZGo67SFc0A/p9I7Gn0gzU1oOKn+vr63tWSENmmR152RWU9GGwujWqs/pC3Q1hrjwlTLNzszroCZ0SUHl8gjQNk2jf31Bvo0ZNZgiAemmarZOASDoLZbNiCtlWugDQCeDROhFcI2hm+t1zdEWzWr+XEOdUmoH2bjNMdrYOwq/ddNNNw6v2fcRGqwlJCWgI1LzV4jL8P6GrqPVJ6/M5nS4cjpJ9xygS9hPQsZXLlNP7i/dhscrWCJ3kb9fI1//Uy6/1O7TevMGjRfog7ua18/QZS8hRqgDQib9HsMxOuqYE36nSHwIn6oC8Sp34E1OYZGY3S5H8/qTa56zz3l9K+b8kls0kVy6GfHvTpk1/cCnAl7y6YDjVF1t8sUPi7mpfbMnaDp075us4tn7/X8fOj2WTud+vRd2wfxSg7rZWK4+VfQ9olciH7aUJAAEyT+uaB1TMQzg+sMCGcgksUPWXaSTgIVomCbcmSVQvjU4W1nnrlVfWOvmR9J33uiaqA/1S3Q0BrlSHnuYBwAA9TGey2nb02GOP3ZYuVzip1d4rtP8nmvCpgVdNxZH4XdMgX6LVsm1FooQlJypNAMjvCxStn+BUXkLFCOigPkIH3juSuKUDzCj4JElnpFH5uxWbHvwzMnj6x5o1a8yT4NaT/4jBLv37tqfupTZL/phbSqnzVTjDQFU//mParFarrTZL26gRx03N8mp/Mq8DtjVL02JbELcByhIApl6nD5e0gM/mQAnowHuRRofMK1qtPPiM0qb+upmEw2VDQ0Mu7/m2squQ7RMTE+YJ6KRTwR5kkzj8YPv27Wk+lHVQGT6tUIf+OJ/sKdsWiemmJ7iy7XOtX/uvyxX25Pz580ea2SB+29W/7GqWptk27Y8rm233ZZs5ERduS19fn7l388DCK6bCEAjM18HT8inawcHBn6sTSPsp17uVx4w8hcChlY1PbpWg2XZ1bjNmQGuW1vdtJ5100sPUYR/hu50F21f3AbeCbcitOh3HLoLvulazQOoiYaKtrc36ForsYwSgUeurg2fovxEc1rd1dHQk2j/GxsbeIFxXKCYJ5sG/50s4uHzsI0k9haRRB5N0Kth69uzREGpl5ofX/nJCPSfrrRO3c7T+uSFG2X6+7E4U1Mf+NFHCMBO1S8A+1sH0zQnzutwGWHrKKacsTFhPaclKGQGQWj+kNI+p2HsC6rwSDb1pCNt8xMM8CPfP6hAafmhH236ufe40qfpKnPR0i8Q8YWz9+p9OJEPXXnttJR6ENDuz/EkqAHZKAH5W+8H6EKOOi18bf1tF7e+1ww477PpW6ULdrv3/ONl+qKJVEJ9rk2RUGhcB0D4+Pm59jKruQkIpAqAQz6gkWAI6QH+e1Hh15BOK53V2dh6vE4F5gNBM4/kzlTGivy/W8nlaLt+8ebPTU71J7SkonRn+tz52xeT7BdlZSDVq30TDwTqBmmFx85XGQuzKuhL5aW6dtixW6W7csGFDIhHdsjAPE8i/RO3dyHRdDJj9oNHmA+t1nLgIgDbtb2aq4gPl+fjDuhPx0RlsqgSBG0dGRq5L68mmTZtu1tXd2yUGzJX+Y4eHh3v091laXqp1E2nL8zm9OqY08yUc5Io6UCOSDlof6gp1tIlGAOR3oo7fVw5q96QnvioP/7el4FC3KXX7a3vdDTNWtrWNjo6aZwBc+o6ls4r07k8EgHdNEr1B7xeBYK/SZHvuQVcwLlOgamRyvEqjIe06sSe6H6x0QZ8YZX/SEYDUAjr3nTbbCh7tUNwdusBIdCtlx44d5rkhlxkBEQAODUXW+Aj815IlSz4Vn9vJPe7v75+rK6ATk+eYmVJ5N27duvWemWvD/Uv3g4+W9WYSKS2aB/kerADY/72MRzT3cN/WkP3c50HL/x/ZMkXjBIlGgaaya3TJTAs89WeqpYQ6AiAVMRJHS0BXNz/W0NyZVZ68JIvG3blzp3m/uNu2LHVKdT+AYlte2fnUQZvvISQyo6urK1gBcP3115sZMhPN+yABkPgZmkTg/Eu0xMGkn6XJq+PlhjTpp6dVO/AMwHQg/IZAHQK/08n/fB0sp2/ZsuXOOttzWbVixYrFunp8peL6vr6+zVr+VvHOnp6ebVpervh3q1atengulTsU2tHR8XiH7CZr8LMgGiemojpo80T41J8Nl9q/RgcGBm5rmMDzDd3d3Ymu/o0bOp4q+wlgHZdmkrCHGj9totgkuKKfUfKNM/5K98ci2Wve2EmXq8DUoT4D8DYxMhO6ENvaQmXwGrXhabqiffjg4OCFRT2op5P9Eh2Ul+jE8RvV/zHF5+jkYCYeMhNTLVIHcYLWPV3xn3V1eYvSflfRp9d5XD6ctWf37t1J34EWAv+D2i7RCIDa9Rb/vWlsofxM9KVDpRvTsVSJDzzVo6F2NFf/c+ptS7gu1Qld9aUVDDPMUB/i9ShAkAKgs7PzQ9rJ30scCpnBh9V+P9z/oM2MgyaPP8w9VJ38X6sO0jzZ+wId2HMT1GOOj6cqz4hEwIeWLVtmPfSeoK5ESWSLESuJ0tZJ9LMiR1nq1J/5Kgm5pFfGHRrdOTfUKHCJvvyo/fp/lbayD9Fq/3e6ry4+LQWA+B0IEsxOAkAjdk72HjAkpx+mg8upaIqFgB8EzIn7xhtv/LI6jw/IIjOEqEXyoE6jQ6lfPXfu3B+uWbPmwfpdSpAf5mE3cwVkVb/8+G+rjB5nqtVqiW4ByIVl8v+ToUbtu8+TDy2DrjgrO/xvnBeHRCM+Jm29KMGYaibQxYsXm7cArF8FlL0IgHoNwToIFEHAnDTnzZv3HXX8Z7rWpzJO1hXBhpUrV5rbBa7Fpc4vAWJuT7gMfw6krtTzDOrQnU4InruX2jzx+GXqTAFlkH9HOZj724GBgbua55+5dcOGDWaGURdRlXSEambFBf3FCEBBoKmmFALtOvlfrJpd5s1X9hnhMeqEvmOExYy1BfwhAWIEgHVNuhqp1P3//v7+TvlkXgO0ZlK1jOJhbgFUza0D/sg/6/bW8WMljpTP5TaA9QOLB5zO8QcCIEe4FF0uAd23N1MDPysHK3olLMwDhDkU3bRIawGgjrPW3d1dqQlidu7c+TB1zp1NiUW2UeK00gJAzWktAHQMtGSj8g8Ktvn2F4QA2A+CBQQKI9DT0/N4HbhvzLHCF0tgvCDH8usV7fI2wo6NGzeO1Ss01HUdHR2lPY/hK7NareYyXO2rW9PtshYAKuRXijbBvDFkk8/kQQAYCkQIFEVAw/PdujL8tKJ5eC/Pai+UCEj9UKGDQdYjAGJh3n5wqNq/rLraLWzeCP+8r2+RRG+qp9zrl+LtWvP8i8szAC2+gNnQbxcBcKTpjxqWXPIGbgGU3ABUnz2BuXPnvlKlJv1wipJah4cp598p5h6WL19+uCp5kKJVkAAIdha8Rg5v2rTJzNJW9SveRu7XW3/Dli1bgp7voJ5TU+skto/U70MUrYKOgUTfAKhT+P/VWZd01ZxDDz3U25EqBEDSZiRdEASkthfoKshMjlSUvW9Qx5T7MF9nZ6fL/OeGReVGAOTUHnXqb9WSIALa79+iRWXD5OSktQA2UMSn6S0Ak2Yqmjd9dFyf2tfXd7r2MZfbDm2q91mmnLRRNjxR0WXEY8qdhksEQEM0bAiRwLx5816uoSX41KUAABAASURBVOEiFbcRHG/Km5U6IScBoM5ze942llH+4ODgF9XBvl11V3byG/nWKkwqwRuHh4cv1bKyIYPjuuVQfk9Pz7N14t+ousy00Vdp3/q+4kdcoJr8iqacVFE2/EjxVtlzbU9Pz0tkg7kFokV2AQGQHUtKKpmAme1PJrxKsehwtkYe8p4l0EUATB522GFmQpOiuRRSn05875DAWa3KLpJQ2qjlUAxRJ5VrFM3kRn1DQ0P/JJ8rHeSr0/wb3d3dv20EaO3atfN0hf4f2n++ojTmexuZn2xVrm04UXb9m0TA98w3TGwLqZcPAVCPCuuCJHDzzTebOfwLnxhGB+dCjTyYr/Tlyc1aAKjjvHXDhg278jSu7LJHRkYGdRI8VyMCJ2tpToiVjxI+pyi+XD6PlM2/iPp1NWx9C0DHQG3jxo2NHhptHx8f/3elSTTbYhG+1qtD/czpYvCt/v7+JNOY1yvioHWlCACp9ZiH6w5qBFZkQ0D71Z9nU1L6UtR55HqvTuVbTwGsvFV+Mjx9Y5EjVALWX9bTMfB7OW1ulWgxM+jK/6+0Jo/5QlRstkEi4OTR0dHMXm8uRQBIxYzaYlFD1gYGBu62zU++ahLYr4rNCEApDmqfvi/PilW+tQBQp5Fq/vM8/aBsCNgSUN9vfQtAx8Dv6tVrbhuq3MxOqPXqyGHd69asWXNYFuWWIgDUGD+zNV55zas/dZWcbZnkC5/A3Xff/f+0byx08UQdQc02v07Quc2yt7+TMq8c2prHCIAtOfJ5Q0DHt3kN0Moe5a17/1+3DR/f1tbm9Xz9dRxeUKvV/l+d9alXlSIANm/e/H9qkMHU1u7LcPm+Bf9D4H4COnk7fexH++M3FS+6v8RUv366adOm3B6yu+WWWx4o26wnNZI4YQQgVXOS2FMCixzs+kO9vOo3Tqq33vd1ut25IgsbSxEAxnA58D6zTBPVWGPK99E0eUhbfQK9vb1d8vKZitZB+5XZH9+pfSzV18JMhTo5X2iWeUXZ5DTPgPInfv85Lx8oFwIZEHARADvr1a9j9/B6631fl5XdpQmA4eHhS9UxmVcuErOW0+ePjIww81diYnEk1H5hnsBfbOut9sOfa3+8amhoyLwn/OqU5Vw+ODj4xZR50iZ3EgCqzPilBQEC4RLQcepy37uuAFCZpZ0DHVsik9cUS3VeHfeLBSHJkL55a+Bt6qCdJmRQXYRqEjDvgFt7piHyA0JUQuBzKshM75vkOZMrxsbGzJsHZv9UttyCkwCYmJhwmco0N6coGAIpCbiMADQY2UtpQcWSlyoAdEK/V9G8fmHmbm/0oYYhDc/+kdK9s2LscScjAto/nASArgIOCABjkva1D0icPlHrrzF/14m3avvfLFmy5Onbt2/P/Y0U2WEtAJR3dOvWrffU8YFVEAiKgPZlFwFQdwQgKAA5GFuqANjvz6Q63E8sXLjQTODyBDXyX2v9BepgX6orsxO0rU/D/ldqHQECjQi4CICbtY8Nzy5Yw/pXazTglFqtdrz2xRdrv3yD0rxSv081+6q2f3T9+vXWbw2orMRBdT4kceJZCZWX4f9ZTPgzSALt2pcX2Fqu47fuCIBteVXJ54MA2Mtyw4YNu4eGhn6iTvdjWr5XHexnN2/eXLkvmO11lv8yI2CmxlTHcLxtgcq7oVneLVu23KB98YvaL9+n/fIT+n212Veb5cl6mzov6/eflRcBkHWDUF7hBHp7exeqUpf73owACODs4I0AmG0Yf0MgCYHOzs4+pbPuGHSC3Kz8XgfZaDo/KxslcOpOgGJVGJkgUBIBjQbPc6lax0GdW3UuJVYjLwKgGu0YrRc6OT7K0fkBx/y5Z1fndbhDJY3mP3cokqwQKJaAjgEnAaB+YqxYi8OoDQEQRjthZWMC1rN4qVMwH8jZ1rhob7bw8JM3TYEhZRCYmJjIXABk4McvxsfHj7CNqr/0iw8EgFqBEC4BncStBYC8vk739Se09D0gAHxvIezLlYDrCIBuFeYxAjC5bdu2O2zj5OTk7lyhJSgcAZAAEkn8JaCOwbw9YmWg8t5ilbH4TAiA4plTo0cEdKxmPALgkXMlmoIAKBE+VWdCwHoEQJ2K97NK9vf3d4rSfEXbwNPPtuTI5w0BHatzXYyp1Wrmdp9LEZXMiwCoZLPG4dTSpUsPkacPVrQKGoJLJQBWrlz5wL6+vtf29vZepjhYRBwdHTVvKbi85cD7z1Z7B5l8IqBj1WkEYO7cuTMEgE++lWlLpgJAHeQydYrvUif5HS0L6SCpp7cUzj09PZvUzt/Q8k1qg2PK2IkP1z/V67IPJxUAc+Tj69vb22/Zs2fPB1Tnnyr2FhSdvvqlKydmAVRDEYInYEbCrJ2455577rPOXOGMLp3nASzLly8/XB3kxeogzcQ9b1EneYY2FtVBUk9bW+EMdGJZpXZ+hpb/oOWNEgIf2H9FrqYvJqhup6sC7a+/TWCpOfl/VunM1wJdhuJVRCkhhIccSwFDpeEQ0LHqdK464ogjps3aGY7feVvqBNUYd+KJJz6ou7v7av1+oSIhQgI6EXcqvvawww67Yu3atU4n5TT4JDxcT8j3tqpPwtZ8GOglrdJ5vB0B4HHjYFoyAroF0JEsZf1UupWGAKiDxlUAzNHJf73KfawiIXICEgFPGh8f/3iBGHIVALqlZabgfUeB/uRRFQIgD6qUWSgBjQA4CYAlS5Yc+LpnoYZ7XpmTANA94OfrKuyJnvuIecUSOFtXzWsKqtJJAEiwNB0B6OjoeJH8cKpD+UsN8oErn1JbgMqzIOA6ArB+/XoEQJ2GcBIAKu/ligQITCeg8+qcl01fkddviU+nk7MMbSoA1On052V7UeVOTExYvyZZlI3UA4FWBHSsuowAmJP/nn118P90AtYCoL+/f6464MdPL4zfEDAEtF882SwLiN0uddx9991NnwxWp3O0S/k+5NUIwJE+2IENEHAhoD7F+lylehkFE4R6wRrqzp07zfvXTh1wPYNYFz4BHazmxGn97npSArpCb3oCb1XOggULzDwCzZKNN9sYwjaJGJ4BCKGhsDFPAgeu/vOsJMSyrQWAnKVjEQRCXQJm38j9oNPVrdP83hIqrW4hXF/Xu4BWysdfBWQupkKgLgEJWTOMX3dbq5U6BlxuH7QqPujt1gJg6dKltwkss4wF3fz5GK+D9YZ8Sj6o1Kb38A9KPWuF9t+mAkDbvzUrS4h//j5Eo7EZAtMJ6Fi0HsZXf7RfAEwvkd+GgLUAWL9+fU1grzCFECEwi8C3Z/2d159OAkBGNRUAu3bt+prS3KgYcugK2Xhsh4AhoHON9QiAya9ofa5T3soGJyi6B/tBkcl9qFd1EAIhIKVuhuU/UYS56hRyFQDbt28fVx3nyBdzS0OLIAMCIMhmw+jpBNSvWI8AmHJ6e3s7zJI4k4CTABgZGdmo4j6qSIDAXgI6Yb5xaGjol3v/yPk/1eUkACRgH9TKxMHBwQ3qfM5SOqcHDpW/rIAAKIs89WZGoL293UkALFy4kNsAdVrDSQCY8gT2dVpeokiInIBOyO/Ryf/DRWEYHR29Q3VZDw2qUzlW+VuG4eHhL0sErJZ/V7ZM7F8CBIB/bYJFKQlIrDsJgNtvvx0BUIe5swDYsGHDbnX6Z6lzfKnK54ljQYgw/EwnyGfoavnNRfpuhuhV3/8p2obEXzGUCNgq/06Xn49SZX+l/d1MEfxe/c41qj5XQdX0OQfZT4BACAR2uxgpsY8QrgPQWQDsL3OPOsfPajTgOHVYT1F8g9bn2jFSfpsPfF+jtl4rAbhMJ8jL1SaFB9V/i22lyptoBGB6+fJzh/z9tPb3t2t5Qd5RQuO86fVb/D7MIg9ZIOAVAR0HTrfgurq65nrlkCfGZCUA9rpjRgPUQf6X4vvy7hgpfyj3k08Cxh9WW/+3Gr+0B0HVMfxC9VsFCQDvp8lVG5gHEF2edVhkBYdMEPCIgI5V83CxtUXqJwr7Sqm1kSVkzFQAlGA/VULAWgCoU1i2dOnSVrMB+kB4p4MRCAAHeGT1g4CbAGhrm5iYQADUaUoEQB0orAqKgLUAkJeH6LbVci19DwgA31sI+3Il0NnZ6eMIwMKenp5zbWN7e/tDcoWWoHAEQAJIJPGXwOTkpNOsgzoIVyfx7pRTTlm4cuXKo8xHsJKkzzgNAiBjoBQXFgGXEQDjqY7zPJ4BeIBGET9pG2XXIxVLDQiAUvFTuSsBdQxDKsP6VUDlXaNYN6xZs+bo3t7e9ynetGvXrrvUidx611133d3X17dZ8a8LvH2AAKjbQqyMhYCOc6cRAHHibRhBmB0QALOJ8HdQBLZs2XKnDHb5aM+TlP+gLxfqBH/W7t27r9O21ysep7g3SO13qDPqU/zIokWLtirdCXs35PuftQCQnQ/M1zRKh0D+BGq1mqUA2GebjoND9/3i/+kEEADTafA7VAKbHAx/hO7h9UzPryv+c9RhfF7rFig2C8cr3VW6NbCsWaIMtv3BoYzS7zM62E5WCOwlsHjx4rv3/rD8T8Kd12HrsPNGAKxatWqFOt53KX5TV1U/0PJSxdepcz2qjt2sgsB0AgPT/0j7W53DmVN5JAYeq98fUzxoVEDr6oXFujVg9tXcJhqRyHCZ7Ijjp16rsS4oAuYVcxl8j2KqMJVYxxBvw0zBmLYsXQCYE7w63a9PTk6OyK63KP6JGuspWq5TfL8611skCC4s8H6rqiWERED7jssIgHH1gACQGDAz/HWblSni47TPvjBF+rRJf5M2w7T0i9euXcsrUNOA8DNYAta3wuQxAkAQZodSBcCKFSsepRP8gDrdZ842bNrfXepcz1u4cOF36cimUeHnAQK6F79FIuD2AyvS/zheo01PXr16tZnJ8tnps+/N4asAaBsbG3vwXgv5DwJhE7grnfn3p9Y5hlsA9+M48Ks0AWBO5h0dHWb62KMPWNPkh4RC/3333ffJJknYFCkBMzyofenrLu4bkVmr1V6vjsLqoyHKt8ql/mZ5ZZvLCECbbHtos/LZBoEQCEjkWwsA5W0kAMxMmyG4P9tGp28jTBVWmgCYmJgwXxE8fsqQJEt1ZGfpSu3UJGlJExcBnSS/4uKx9q0/VhnnOpSxqL+/v9Mhf8Os6rycBIDE0cMaFs4GCARCQBeB5o2fxNbOSlj3FoCOeZfna2ZVUdyfWdldlgCYIwdeYYnLNp9ldWQLgcDOnTt/IDtd7hGaK2WXE/g9ZiRCNmQeDj/88NtUqPVcBxIQB15jVDkECIRKwPr41vnmyHpOd3Z2XlNvve/rJIYysbsUAdDX12eu/K2uStSQp/neONhXPIEdO3aYr4WZW0rFV76vRvMQ675fGf+/X1gYEWBbcukzjtkaTj4ITBFQ35/iOZ+pXPuWOmHWnQ9j06ZN10sgX70vVTD/3zg4OPjjLKwtRQDI8GMUrYKGah+ybNmytE9pW9VFprAIqIP4j7IsVt1OtyBa2a3yb26VptF25V1tPob1AAAQAElEQVTSaBvrIRAKAfX9v3Ow9UFN8p6nY6TWZLtXm2TreTLIekRQeQ+EsgSA02tJCxcuzGNe5wNQ+BEmgeHh4W/L8hsVCw06IEfVOf1bzpVa+yXbGAHIuXEovhACiQVAHWvMCEDduT1GRkY26hgxz6TtqZPPt1X/pH7usqyMKksAZGU/5UBgOoFJHcgfm76iiN+q83NDQ0PW9ycT2mgtAFT+Mb29vblNVKTyCRDInYCOMxcB0LVixYq6DwIaw3X8/ouE/Fn67fKgobLnFu5Vya+RnW/UMrOAAMgMJQX5QKCrq+tfZcetioUEdRq7Ojs7LyygMmsBoI7TPNxofdutAN+oAgItCdRqtd+2TLQ3Qf3/uru7m90GaNOV9SWTk5Pm+bQ36bi+Rr+tnzmob0HqtTtlx2blerf6mEfr5P9h/c40IAAyxUlhZRPYuHHjmA6afyzKDp1cPzowMPCrvOvr6Oi4yaUOMTFTHLsUQV4IlEpAx5rLCEDb7t27W06IpdsBv9OJ9h8lBk7R7yP129w26HVxXELiZFOORVwsO1Yr31vz6mMQAC4tS14vCaij+JQM26qYd/jN+Pj4e/KuxJTf3t5uPQJg8ovJCWZJhECoBLQPJxIAjfzTMWT15pnqbSkcGtVp1ku8u7zBY4rILSIAckNLwWURkGKekOp+qa56c32yV+W/atu2bXcU4aeuAEwn4nJ/cnkRdlIHBPIioOP6Nh1z1jPgKW+iWWfr2O80k6bq9XayIQRAndZmVfgENHw3KOVuPuyTlzOf1vBcZk/jJjFSouanSdI1SMMIQAMwrA6GgHn1rcWsmI19UX9gNQKgE3jTZwca19jWpryjEi7mAb5myUrbhgAoDT0V501AB967dQBmPjeAOpKNO3fu/Ou87Z9dvur9n9nrUvz9GN4ESEGLpF4S0DC+9fM26gtsRwCsH6DVMWtG7rxkaYxCABgKxKoS2KMD8KVy7grFrMIW3ff/0/0zD2ZVZtJytiVNWCddtzpP84RznU2sgkAYBHQSbyoAWnhhKwCsJ9LSqB0CoEWjsBkCuRHQKMC9Y2Njz1QF6xVdw1W1Wu3JW7dudXodydaIjo4OlxGANnVGfbZ1kw8CPhCQoHd5xffhlj5YCwAds9YzeFramiobIwCpcJE4RALbt28flxB4nq4eXqZo80lR88nQ92rY/4+2bNni8iCeE77Ozk6XEQBT9xrzHxECoRLQ8dtkBKClV0etXbs21Sy069at61Cpj1C0DU5v79hWmjQfAiApKdKFTmDP8PDwp3QFsVyOfE7xHsVWYVwdjpnjv1cC4oKShv0P2Lhx40YzMcmvD6xI/wMBkJ4ZOfwi8EsHc+bs3r071dX8DTfcYEYNXL494zR/h4OvibIiABJhIlFVCOhE/kvFv9DV9FE6uZ8rQXCxhsbN18B+raW5XzegdV9WfJ3+Plqi4TlK73rlnSU+MzOYVXny90T9O9QqM5kg4AeBhlfUSczTLbxUAkD9gOt3NJzsTeKTSxoEgAs98gZLYGBg4C6d3C8aHBw8a2Rk5NShoaGHafkQLR+vdc9X/KD+dpp4JCc4A7blqjOT7unssc1PPgiUTUA78A5HG1Kd0HXMpEo/2zaJbkYAZkNx/Xt8fPzrPT093yeGy6C3t/driu9U5ISU4oBQh2ItAEw17e3ta82SCIEQCRjhrmPgDwfbnnhNqhO6BECqEYNZVtyrCwpvJwEytgY5AqBOrF8NczpxTrAMtPM9S/GtikN9fX3fWblypcuDNiomjjBv3rzN6gCtZzjUbY3+OEjhZVUJqN93GQV4TEou1gJAx6m5+vf6E8NBCoCUDUhyzwnoQDlDJg5oNMA8oKef9mH16tVHrlq16nESFUv6+/vNV/DsC/Mw59VXXz0qs65TtArqPJ8gznwa2IoemTwhcNB99RR2pZ0R02XuDCMAUphWfNL24qukRggcTECjOuaDG5fr5LTo4K3N1yxduvQQnfBfq1tC22q12u91lfs/EhU3jo6O3qHyvqzRhUq9/66TuMttgAXKv7o5UbZCwF8C2n9vsLVOeR9iLhKS5F+2bJl5+t/lK5ouQiWJic5pEADOCCkgQwJmys23pClPJ/5HH3bYYdfqhP8BHdyz1f0ClfVciQszumC+2leJ/V2+/kR+WQflP806MxkhUDIB7b+zvomRzqCJiYnHJckxf/58k86IgCTJ66VBANSjwjoINCFwzn7l3STJvk06+S9RZ/BjnfgfvW9Nw//Nif+NGg34YMMUAW3o6Oi40sVcjZAgAFwAkrdUAtp/nQSALgjMiT2JDyuTJGqSZmuTbV5sMh2jF4ZgBAT2E1g8d+7cJG8GzFFH8EXlSfOlrr/VbYJnKE/QYfPmzf8rB1yGQU9dvnz54SqDAIHgCOgEbvb98SnDLZYnJsmji4uTkqRrkMZ8hwQB0AAOqyHQjEDLNwJ0Nf80Xfmf3KyQetuU51311oe2Tp3Tf9naLAad3d3df2ybn3wQKJPA0NCQmZr75w42rEqY12UE4CbZuTNhPaUlK2UEoFarJZmGtTQoVFwuASn8lq+56QT4PEsrT5J4SPsqkGVVuWb7oUvpEgHmA0kuRZAXAqUR0PG//zaAlQkn9vf3z22Rc462JxopULqDguzbctBKD1eUIgDEweU9TmUnVJxAy4dndALrtWWgg9M6r22dWefbvXu3EQDW7xiLwRlJn7XI2nbKg4ArAR3/LifYrtHR0abD+7pIMO//p34jacov2Xft1G+fl6UIgJGRkV8IivW7zMpLqC6BXx933HEt751NTk4eaYtAB6d1Xts6s85nPkksBtbfBZA9i+bOnftkLQkQCI6A9v1BY7RtVB/Q6jZAkueQGlYvgT3ScKNHG0oRAMZ/AfqQWRIhMIvAR9avX9/yFoBuE1jvuzr4zSc+Z1Ub3p8dHR3fcLFaHF7gkp+8ECiLQHt7uxEALiNgrabEdpoxs6ury2WEojCs1p2oq4WPfOQjP6MO6Meu5ZC/UgS27Ny5sxKv6hXRKhLRTgJANp7J1wFFgRAcgaGhoZ1tbW3mbQBb21uNflm/Kqvj8g8DAwO/sjWsyHylCQBzlSdQZ0oEGCVXpM/U5SeB7bqv/Sc7duy4z0/z/LNKneA2WXWzom04tLu7m4cBbemRr2wCLrfAHtrT07O0ngMrV648SuutHxTWeW1Y+YMIpQkAQ0cd2O8F60mKF+rvexUJ8RG4T+3/0c7OzrXXXnvtrfG57+yx0yiA7qWe5WwBBUCgBAKq0mVK7DbdRniSyjgo6KK01ejAQXmmr1C5TjN1Ti8r79+lCgDjnETAvcPDw+ePj48frRPBixQvVAN8ijin0gzU9u9XG5+tE9DD1f5/oyGzu7SOkJKAjpevpMwyI7na4KlmRsUZK/kDAgEQUN/hdAtZx06jYf5G65NSsZ6jI2kFWaUrXQBMObJt27Y7dCK4RPH8wcHBlxGrzUDC7/Vq4y+MjIz8bmofKGqpA3+thv/OzTPqpHqmyu/t78/3i4Q6XszVxi0O7Ewf8HKH/GSFQAkE2trUd2zTsfwHh8qf1tvb2zU7v0TxabPXpfj73rGxsU0p0pea1Bz8pRpA5RAogcA6HeSfzDOqY/pPlT84Ojr6a3Uy78zxYTvzJPS/uzCUrefIxvkuZZAXAiUQmNQxdpVDvYuV/5Tp+VevXm0+/3vs9HUpf1+1fft2l2mKU1bnlhwB4MaP3BBoReCBSvDWrq6uYY0I1H3oSNudgoZCL3YqoK3tcHWEPAvgCJHsxRGYqkni9UdTv22Wyj/j2yA6ltbZlDOVR8dRMMP/xuZoBMCyZcsWaFj2pbrS+ZI64qu1vErx84ovWLp06SEGBhECORI4Xp3DD9asWfPgrOvQUOh2dWROE48o/5t0jLh8+jRrtygPAkkIuJ5wn6NKDpwHJQDO1N/WoVarudpjXbdNxgOO22QOJY9O+C+aN2/ezerkPi2b/1wdsfmIzKn6/WLFSxYtWrRDaf5EvwkQyJPAI9RBfDiPCrRP/5tjucfMnTv3JY5lkB0CBRC4v4rh4WEza6iZWfb+lel+HaO+f++kPytXrlym48jlA0B36mLSSYinM909deUFgBr3bWrULwrVAxQbhaOV5usaDXhFowSsh0AWBCRCn7tixYpHZVHW9DI6Ozs/r7/vVrQOOgbevHbt2nnWBZARAiUQ0DH1TZdqtd+fbfK3t7e/1Cwd4gYzv41D/sKzVloA6OT/XDXu2xNSbdeO9BHdJtirBhPmIRkE0hKY09HR8ay0mVql3/8a5RdapWux/Zjx8fE3tUjDZgiUSmB25erjnQSAynvOqlWrHq6l03MwOn98XWUEFSorADQUc4h2jFTTyip9h+4BfUQtaD4FqQUBArkQWJ5HqbqC+bjKNW8FaGEdztv/JLR1AWSEQJEExsbGNujk6zKPyHz1+9+TzeaBXS2swvjExAQCwApdDpkWL15snu40UzqmKl0i4ATdCpjxakiqAkgMgRYE1Fkd2iKJ1ebNmzf/VBnNZ4K1sA6H1Gq1LxkBbV0CGSGQG4GDCzav3anf/trBW1KteUyq1LMS65i+0sxlM2u1939WdgRADeIynaNLXu8bHQPLJaDO6ra8LNCVzHsyKLtXAvoTKoeRMEEg+E9A/b15BqY0QzX65jQXR1mGV1YAqJM193Rsubrkta2TfJEQUGd1TV6ujoyMXKmyXSZHUfa2Ntn4Fz09PeMaDRtTvFPxdmIvDHrLZdBoH1R//5/acScVywh3dnV1mfrLqNupzsoKAHVgLu/2u+R1ahAyV57Anbt373YdrmwKSaMA72iaIOFGdaqdSjpXcZHi4cQ2GLR5zaCU85mOk0s2btw4puMjuFAKsOAoYTAEsiPw91u3br0nu+IOLsmMAqhTcvpQysGlsgYCZRPws/5arXaRn5a1tgoB0JoRKSCQCQGdlC8eGhr6aCaFtShEI2CvVay1SMZmCEDAgYCO6e9KcF/rUESpWREApeKn8kgITOhk/A+Dg4NmwhHX1/QSIZPQGFZC8yCfFgQIhE/ARw909f+PPtqV1CYEQFJSpINAOgJmmP+nukL4UEdHxwnDw8NvUfZCH1KanJx8q2JubxzIHwIEYiZwla7+g77VhgCIefeN1HedlF+nK+Q5OccFKv8EXfW/dtOmTdeXgXrLli13yte/LaNu6oRAtgS8K22yvb3977yzKqVBCICUwEgOgZAIaOThUtnLrQBBIEAgQwKf2qx/GZZXSlEIgFKwUykEiiOwc+fO12okYLC4GqkJAtkS8Ky0X3Z3d7/ZM5uszEEAWGEjEwTCIbBjx477NFz5XJ4HCKfNsNRbAvdJTK/buHHj7d5amMIwBEB9WM9vNOMU6/2YCUzN1uzzztpMmE5g06ZNN0sEmC9d3jp9Pb8h4D8BfyzUyf/Vg4ODm/yxyM0SBEB9ft1azaxffs/6xTz12knThKGhoZ+pA3ui8tyiSIAABBIS2LNnlkJXpQAAC7VJREFUj5lT4xU6+X8yYZYgkiEAgmgmjIRANgTUgd3U2dn5BJV2hSIBAt4T8MBAcwvt+RLQ/+qBLZmagADIFCeFQcB/AgMDA79SZ3aGrmrOlLXcEhAEAgQaELhMo2YnSTgH+bGfBj4dWI0AOICCHxCIi8Dw8PBX5fHxim9T/K0iAQKeESjeHAljM9w/PDk5ebKE8rN18v958VYUUyMCoBjO1AIBLwmog7tX8Z2KD9aVzmPU6V2g5cWK31RHeLGMfpfiBcQ2GLRVjsFb29vbzRwZX9L+bb7Q+XHt88/btWvXfB0PvSMjIxu1vtIBAVDp5sU5CCQnYK501Om9V8uzFJ+pEYKz1BH+veJ7iUMwGCqeQc773bs3b978StXxQsU/U3yV9vlLt2/fPp78qAk7JQIg7PbDegsCusot5IM8FqaRBQIQgEBhBKosAHYWRpGKQiPAvhFai2FvhARwOW8CVRYA1+UNj/KDJcC+EWzTYTgEIJAVgcoKAA3zfjMrSJRTKQK/njNnzlClPMIZCFSQAC7lT6CyAmBkZGRQHf2V+SOkhsAIfGBoaGgiMJsxFwIQgEDmBCorAAwpjQK8XLESH20w/hCdCfxEJfyLIgECEPCaAMYVQaDSAmB4eHhHZ2fnGRIBtxUBkzq8JvCT7u7uZ3H173UbYRwEIFAggUoLAMNxs/6p4z9Jvy/as2fPLi0JcRH4jdw9T/G0qnzCU74QIFBpAjhXDIHKCwCDcWBg4DZd+Z07Z86chyg+XetepcjMXtWb2Wtvm6qNz1c8p729/RS18yPU9v+syH1/wSBAAAIQmCIQhQCYclYngZ2Dg4Pf1vLjiszsVb2Zvfa2qdr4QsXPaPDnGrUzJ/6pA4AlBIIggJFFEYhKABQFlXogAAEIQAACvhNAAPjeQtgHAQhAICICuFocAQRAcaypCQIQgAAEIOANAQSAN02BIRCAAARiJ4D/RRJAABRJm7ogAAEIQAACnhBAAHjSEJgBAQhAIHYC+F8sAQRAsbypDQIQgAAEIOAFAQSAF82AERCAAARiJ4D/RRNAABRNnPogAAEIQAACHhBAAHjQCJgAAQhAIHYC+F88AQRA8cypEQIQgAAEIFA6AQRA6U2AARCAAARiJ4D/ZRBAAJRBnTohAAEIQAACJRNAAJTcAFQPAQhAIHYC+F8OAQRAOdypFQIQgAAEIFAqAQRAqfipHAIQgEDsBPC/LAIIgLLIUy8EIAABCECgRAIIgBLhUzUEIACB2Angf3kEEADlsadmCEAAAhCAQGkEEACloadiCEAAArETwP8yCSAAyqRP3RCAAAQgAIGSCCAASgJPtRCAAARiJ4D/5RJAAJTLn9ohAAEIQAACpRBAAJSCnUohAAEIxE4A/8smgAAouwWoHwIQgAAEIFACAQRACdCpEgIQgEDsBPC/fAIIgPLbAAsgAAEIQAAChRNAABSOnAohAAEIxE4A/30ggADwoRWwAQIQgAAEIFAwAQRAwcCpDgIQgEDsBPDfDwIIAD/aASsgAAEIQAAChRJAABSKm8ogAAEIxE4A/30hgADwpSWwAwIQgAAEIFAgAQRAgbCpCgIQgEDsBPDfHwIIAH/aAksgAAEIQAAChRFAABSGmoogAAEIxE4A/30igADwqTWwBQIQgAAEIFAQAQRAQaCpBgIQgEDsBPDfLwIIAL/aA2sgAAEIQAAChRBAABSCmUogAAEIxE4A/30jgADwrUWwBwIQgAAEIFAAAQRAAZCpAgIQgEDsBPDfPwIIAP/aBIsgAAEIQAACuRNAAOSOmAogAAEIxE4A/30kgADwsVWwCQIQgAAEIJAzAQRAzoApHgIQgEDsBPDfTwIIAD/bBasgAAEIQAACuRJAAOSKl8IhAAEIxE4A/30lgADwtWWwCwIQgAAEIJAjAQRAjnApGgIQgEDsBPDfXwIIAH/bBssgAAEIQAACuRFAAOSGloIhAAEIxE4A/30mgADwuXWwDQIQgAAEIJATAQRATmApFgIQgEDsBPDfbwIIAL/bB+sgAAEIQAACuRBAAOSClUIhAAEIxE4A/30ngADwvYWwDwIQgAAEIJADAQRADlApEgIQgEDsBPDffwIIAP/bCAshAAEIQAACmRNAAGSOlAIhAAEIxE4A/0MggAAIoZWwEQIQgAAEIJAxAQRAxkApDgIQgEDsBPA/DAIIgDDaCSshAAEIQAACmRJAAGSKk8IgAAEIxE4A/0MhgAAIpaWwEwIQgAAEIJAhAQRAhjApCgIQgEDsBPA/HAIIgHDaCkshAAEIQAACmRFAAGSGkoIgAAEIxE4A/0MigAAIqbWwFQIQgAAEIJARAQRARiApBgIQgEDsBPA/LAIIgLDaC2shAAEIQAACmRBAAGSCkUIgAAEIxE4A/0MjgAAIrcWwFwIQgAAEIJABAQRABhApAgIQgEDsBPA/PAIIgPDaDIshAAEIQAACzgQQAM4IKQACEIBA7ATwP0QCCIAQWw2bIQABCEAAAo4EEACOAMkOAQhAIHYC+B8mAQRAmO2G1RCAAAQgAAEnAggAJ3xkhgAEIBA7AfwPlQACINSWw24IQAACEICAAwEEgAM8skIAAhCInQD+h0sAARBu22E5BCAAAQhAwJoAAsAaHRkhAAEIxE4A/0MmgAAIufWwHQIQgAAEIGBJAAFgCY5sEIAABGIngP9hE0AAhN1+WA8BCEAAAhCwIoAAsMJGJghAAAKxE8D/0AkgAEJvQeyHAAQgAAEIWBBAAFhAIwsEIACB2Angf/gEEADhtyEeQAACEIAABFITQACkRkYGCEAAArETwP8qEEAAVKEV8QECEIAABCCQkgACICUwkkMAAhCInQD+V4MAAqAa7YgXEIAABCAAgVQEEACpcJEYAhCAQOwE8L8qBBAAVWlJ/IAABCAAAQikIIAASAGLpBCAAARiJ4D/1SGAAKhOW+IJBCAAAQhAIDEBBEBiVCSEAAQgEDsB/K8SAQRAlVoTXyAAAQhAAAIJCSAAEoIiGQQgAIHYCeB/tQggAKrVnngDAQhAAAIQSEQAAZAIE4kgAAEIxE4A/6tGAAFQtRbFHwhAAAIQgEACAgiABJBIAgEIQCB2AvhfPQIIgOq1KR5BAAIQgAAEWhJAALRERAIIQAACsRPA/yoSQABUsVXxCQIQgAAEINCCAAKgBSA2QwACEIidAP5XkwACoJrtilcQgAAEIACBpgQQAE3xsBECEIBA7ATwv6oEEABVbVn8ggAEIAABCDQhgABoAodNEIAABGIngP/VJYAAqG7b4hkEIAABCECgIQEEQEM0bIAABCAQOwH8rzIBBECVWxffIAABCEAAAg0IIAAagGE1BCAAgdgJ4H+1CSAAqt2+eAcBCEAAAhCoSwABUBcLKyEAAQjETgD/q04AAVD1FsY/CEAAAhCAQB0CCIA6UFgFAQhAIHYC+F99AgiA6rcxHkIAAhCAAAQOIoAAOAgJKyAAAQjETgD/YyCAAIihlfERAhCAAAQgMIsAAmAWEP6EAAQgEDsB/I+DAAIgjnbGSwhAAAIQgMAMAgiAGTj4AwIQgEDsBPA/FgIIgFhaGj8hAAEIQAAC0wggAKbB4CcEIACB2AngfzwEEADxtDWeQgACEIAABA4QQAAcQMEPCEAAArETwP+YCCAAYmptfIUABCAAAQjsJ4AA2A+CBQQgAIHYCeB/XAQQAHG1N95CAAIQgAAE9hJAAOzFwH8QgAAEYieA/7ERQADE1uL4CwEIQAACEBABBIAgECAAAQjETgD/4yOAAIivzfEYAhCAAAQg0IYAYCeAAAQgED0BAMRIAAEQY6vjMwQgAAEIRE8AARD9LgAACEAgdgL4HycBBECc7Y7XEIAABCAQOQEEQOQ7AO5DAAKxE8D/WAkgAGJtefyGAAQgAIGoCSAAom5+nIcABGIngP/xEkAAxNv2eA4BCEAAAhETQABE3Pi4DgEIxE4A/2MmgACIufXxHQIQgAAEoiWAAIi26XEcAhCInQD+x03g/wMAAP//UyrjOgAAAAZJREFUAwBLycxZEfFojwAAAABJRU5ErkJggg==;" parent="1" vertex="1">
          <mxGeometry x="485.75" y="44.5" width="81" height="81" as="geometry" />
        </mxCell>
        <mxCell id="xMSxtXPEdNpJpdcJTAaK-1" value="172.28.0.0/24" style="text;html=1;align=center;verticalAlign=middle;resizable=0;points=[];autosize=1;strokeColor=none;fillColor=none;fontColor=#3333FF;fontStyle=1" vertex="1" parent="1">
          <mxGeometry x="203" y="130" width="100" height="30" as="geometry" />
        </mxCell>
        <mxCell id="xMSxtXPEdNpJpdcJTAaK-2" value="172.60.0.0/24" style="text;html=1;align=center;verticalAlign=middle;resizable=0;points=[];autosize=1;strokeColor=none;fillColor=none;fontColor=#3333FF;fontStyle=1" vertex="1" parent="1">
          <mxGeometry x="268" y="270" width="100" height="30" as="geometry" />
        </mxCell>
        <mxCell id="xMSxtXPEdNpJpdcJTAaK-3" value="172.90.0.0/24" style="text;html=1;align=center;verticalAlign=middle;resizable=0;points=[];autosize=1;strokeColor=none;fillColor=none;fontColor=#3333FF;fontStyle=1" vertex="1" parent="1">
          <mxGeometry x="608" y="125.5" width="100" height="30" as="geometry" />
        </mxCell>
        <mxCell id="xMSxtXPEdNpJpdcJTAaK-4" value="172.80.0.0/24" style="text;html=1;align=center;verticalAlign=middle;resizable=0;points=[];autosize=1;strokeColor=none;fillColor=none;fontColor=#3333FF;fontStyle=1" vertex="1" parent="1">
          <mxGeometry x="428" y="185" width="100" height="30" as="geometry" />
        </mxCell>
        <mxCell id="xMSxtXPEdNpJpdcJTAaK-5" value="172.50.0.0/24" style="text;html=1;align=center;verticalAlign=middle;resizable=0;points=[];autosize=1;strokeColor=none;fillColor=none;fontColor=#3333FF;fontStyle=1" vertex="1" parent="1">
          <mxGeometry x="235" y="185" width="100" height="30" as="geometry" />
        </mxCell>
      </root>
    </mxGraphModel>
  </diagram>
</mxfile>
